<mxfile host="app.diagrams.net" modified="2023-11-06T21:19:48.722Z" agent="Mozilla/5.0 (Windows NT 10.0; Win64; x64) AppleWebKit/537.36 (KHTML, like Gecko) Chrome/118.0.0.0 Safari/537.36" etag="nRM59DLmBNEkzCMi0DX9" version="22.0.8" type="github">
  <diagram id="C5RBs43oDa-KdzZeNtuy" name="Page-1">
    <mxGraphModel dx="1059" dy="671" grid="1" gridSize="10" guides="1" tooltips="1" connect="1" arrows="1" fold="1" page="1" pageScale="1" pageWidth="827" pageHeight="1169" math="0" shadow="0">
      <root>
        <mxCell id="WIyWlLk6GJQsqaUBKTNV-0" />
        <mxCell id="WIyWlLk6GJQsqaUBKTNV-1" parent="WIyWlLk6GJQsqaUBKTNV-0" />
        <mxCell id="WBshEGsGaZux4GWkOtMY-7" style="edgeStyle=orthogonalEdgeStyle;rounded=0;orthogonalLoop=1;jettySize=auto;html=1;exitX=0.5;exitY=1;exitDx=0;exitDy=0;entryX=0.5;entryY=0;entryDx=0;entryDy=0;" edge="1" parent="WIyWlLk6GJQsqaUBKTNV-1" source="WBshEGsGaZux4GWkOtMY-0" target="WBshEGsGaZux4GWkOtMY-1">
          <mxGeometry relative="1" as="geometry" />
        </mxCell>
        <mxCell id="WBshEGsGaZux4GWkOtMY-0" value="Start" style="ellipse;whiteSpace=wrap;html=1;" vertex="1" parent="WIyWlLk6GJQsqaUBKTNV-1">
          <mxGeometry x="310" y="20" width="120" height="80" as="geometry" />
        </mxCell>
        <mxCell id="WBshEGsGaZux4GWkOtMY-6" style="edgeStyle=orthogonalEdgeStyle;rounded=0;orthogonalLoop=1;jettySize=auto;html=1;exitX=0.5;exitY=1;exitDx=0;exitDy=0;entryX=0.5;entryY=0;entryDx=0;entryDy=0;" edge="1" parent="WIyWlLk6GJQsqaUBKTNV-1" source="WBshEGsGaZux4GWkOtMY-1" target="WBshEGsGaZux4GWkOtMY-2">
          <mxGeometry relative="1" as="geometry" />
        </mxCell>
        <mxCell id="WBshEGsGaZux4GWkOtMY-1" value="Change Code" style="rounded=0;whiteSpace=wrap;html=1;" vertex="1" parent="WIyWlLk6GJQsqaUBKTNV-1">
          <mxGeometry x="310" y="140" width="120" height="60" as="geometry" />
        </mxCell>
        <mxCell id="WBshEGsGaZux4GWkOtMY-5" style="edgeStyle=orthogonalEdgeStyle;rounded=0;orthogonalLoop=1;jettySize=auto;html=1;exitX=0.5;exitY=1;exitDx=0;exitDy=0;entryX=0.5;entryY=0;entryDx=0;entryDy=0;" edge="1" parent="WIyWlLk6GJQsqaUBKTNV-1" source="WBshEGsGaZux4GWkOtMY-2" target="WBshEGsGaZux4GWkOtMY-4">
          <mxGeometry relative="1" as="geometry" />
        </mxCell>
        <mxCell id="WBshEGsGaZux4GWkOtMY-2" value="Stage Changes" style="rounded=0;whiteSpace=wrap;html=1;" vertex="1" parent="WIyWlLk6GJQsqaUBKTNV-1">
          <mxGeometry x="310" y="240" width="120" height="60" as="geometry" />
        </mxCell>
        <mxCell id="WBshEGsGaZux4GWkOtMY-9" value="Manaul" style="edgeStyle=orthogonalEdgeStyle;rounded=0;orthogonalLoop=1;jettySize=auto;html=1;exitX=0;exitY=0.5;exitDx=0;exitDy=0;entryX=1;entryY=0.5;entryDx=0;entryDy=0;" edge="1" parent="WIyWlLk6GJQsqaUBKTNV-1" source="WBshEGsGaZux4GWkOtMY-4" target="WBshEGsGaZux4GWkOtMY-8">
          <mxGeometry relative="1" as="geometry" />
        </mxCell>
        <mxCell id="WBshEGsGaZux4GWkOtMY-21" value="Automatic" style="edgeStyle=orthogonalEdgeStyle;rounded=0;orthogonalLoop=1;jettySize=auto;html=1;exitX=1;exitY=0.5;exitDx=0;exitDy=0;entryX=0;entryY=0.5;entryDx=0;entryDy=0;" edge="1" parent="WIyWlLk6GJQsqaUBKTNV-1" source="WBshEGsGaZux4GWkOtMY-4" target="WBshEGsGaZux4GWkOtMY-11">
          <mxGeometry relative="1" as="geometry" />
        </mxCell>
        <mxCell id="WBshEGsGaZux4GWkOtMY-4" value="&lt;font style=&quot;font-size: 11px;&quot;&gt;Decide To &lt;br&gt;Automatically or Manually Commit&lt;/font&gt;" style="rhombus;whiteSpace=wrap;html=1;" vertex="1" parent="WIyWlLk6GJQsqaUBKTNV-1">
          <mxGeometry x="310" y="340" width="120" height="120" as="geometry" />
        </mxCell>
        <mxCell id="WBshEGsGaZux4GWkOtMY-15" style="edgeStyle=orthogonalEdgeStyle;rounded=0;orthogonalLoop=1;jettySize=auto;html=1;exitX=0.5;exitY=1;exitDx=0;exitDy=0;entryX=0;entryY=0.5;entryDx=0;entryDy=0;" edge="1" parent="WIyWlLk6GJQsqaUBKTNV-1" source="WBshEGsGaZux4GWkOtMY-8" target="WBshEGsGaZux4GWkOtMY-13">
          <mxGeometry relative="1" as="geometry" />
        </mxCell>
        <mxCell id="WBshEGsGaZux4GWkOtMY-8" value="Write Commit Message" style="rounded=0;whiteSpace=wrap;html=1;" vertex="1" parent="WIyWlLk6GJQsqaUBKTNV-1">
          <mxGeometry x="110" y="370" width="120" height="60" as="geometry" />
        </mxCell>
        <mxCell id="WBshEGsGaZux4GWkOtMY-14" style="edgeStyle=orthogonalEdgeStyle;rounded=0;orthogonalLoop=1;jettySize=auto;html=1;exitX=0.5;exitY=1;exitDx=0;exitDy=0;entryX=1;entryY=0.5;entryDx=0;entryDy=0;" edge="1" parent="WIyWlLk6GJQsqaUBKTNV-1" source="WBshEGsGaZux4GWkOtMY-11" target="WBshEGsGaZux4GWkOtMY-13">
          <mxGeometry relative="1" as="geometry" />
        </mxCell>
        <mxCell id="WBshEGsGaZux4GWkOtMY-11" value="Generate Commit Message" style="whiteSpace=wrap;html=1;" vertex="1" parent="WIyWlLk6GJQsqaUBKTNV-1">
          <mxGeometry x="510" y="370" width="120" height="60" as="geometry" />
        </mxCell>
        <mxCell id="WBshEGsGaZux4GWkOtMY-19" style="edgeStyle=orthogonalEdgeStyle;rounded=0;orthogonalLoop=1;jettySize=auto;html=1;exitX=0.5;exitY=1;exitDx=0;exitDy=0;entryX=0.5;entryY=0;entryDx=0;entryDy=0;" edge="1" parent="WIyWlLk6GJQsqaUBKTNV-1" source="WBshEGsGaZux4GWkOtMY-13" target="WBshEGsGaZux4GWkOtMY-16">
          <mxGeometry relative="1" as="geometry" />
        </mxCell>
        <mxCell id="WBshEGsGaZux4GWkOtMY-13" value="Commit&amp;nbsp;" style="rounded=0;whiteSpace=wrap;html=1;" vertex="1" parent="WIyWlLk6GJQsqaUBKTNV-1">
          <mxGeometry x="310" y="500" width="120" height="60" as="geometry" />
        </mxCell>
        <mxCell id="WBshEGsGaZux4GWkOtMY-16" value="Push" style="rounded=0;whiteSpace=wrap;html=1;" vertex="1" parent="WIyWlLk6GJQsqaUBKTNV-1">
          <mxGeometry x="310" y="600" width="120" height="60" as="geometry" />
        </mxCell>
      </root>
    </mxGraphModel>
  </diagram>
</mxfile>
